<?xml version="1.0" encoding="utf-8"?>
<!-- Generator: Adobe Illustrator 26.1.0, SVG Export Plug-In . SVG Version: 6.00 Build 0)  -->
<svg version="1.1" id="Layer_1" xmlns="http://www.w3.org/2000/svg" xmlns:xlink="http://www.w3.org/1999/xlink" viewBox="0 0 24 24" style="enable-background:new 0 0 24 24;" xml:space="preserve">
<style type="text/css">
	.st0{fill:#0ACA9B;}
	.st1{fill:#FFFFFF;}
</style>
<g id="File">
	<g>
		<path class="st0" d="M998.4,535.2c-0.7,17.8-2.6,36-6.8,53.4c-1.5,16.5-6.4,32.5-10.8,48.5c-5.1,19.5-12.5,38.3-19.9,57.2
			c-6.8,15.7-14.3,30.9-22.3,46.1c-7.7,13.5-15.7,26.7-24.3,39.5c-9.5,14-19.7,27.5-30.5,40.5c-11.2,13.1-22.7,26.1-35.2,37.9
			c-16.1,15.6-33.2,30.2-51.3,43.5c-15.5,11.5-31.6,22.1-48.4,31.6c-18.8,11.3-38.7,20.5-58.9,29.1c-21.5,8.7-43.5,16-65.9,21.9
			c-19.5,4.3-39,9.2-58.9,10.8c-37,5.7-74.9,5.8-112.1,2.2c-33.6-2.6-66.9-9.8-99.2-19.3l-0.1-0.6C198.2,932,70.3,803.9,22.9,649.1
			C12.6,615.7,5.3,581.1,2.6,546.2c-3.8-33.8-2-68-2.2-102c-0.2-27.2-0.3-54.4-0.1-81.6c-0.2-27.9-0.2-55.8,0-83.8
			c-0.2-24-0.1-47.9-0.1-71.9s-0.2-48.2,0.2-72.2c-0.3-23.8-0.1-47.6-0.2-71.4c-1.6-17.9,4.2-36.7,17.9-48.8
			C32.5,1.3,53.7-3.6,72,2.8c11.1,3.8,20.7,10.6,30.6,16.7c36,23.4,70.5,48.8,104.7,74.8c3.7-2,7.3-4.3,10.7-6.8
			c13.7-9.6,27.9-18.4,42.6-26.3c14.9-8.2,30.1-15.5,45.8-22.1c16.4-6.8,33.2-12.8,50.1-18.1c18.1-5,36.3-10.1,55-12.7
			c20.4-4.1,41.1-6.5,61.8-7.3c25.5-1.6,51-1,76.4,1.7c19.3,1.7,38.4,4.8,57.3,9.2c128.5,27,244.1,108.3,314.5,219
			c31.4,48.9,53.9,103,66.5,159.8c4.7,21,8.5,42.3,9.7,63.8C1000.5,481.2,1000.8,508.3,998.4,535.2z"/>
		<path class="st1" d="M693.7,261.1c20.5-5.7,42.2-5.3,62.4,1.3c25.6,9.8,46.3,29.9,57.5,54.9c8.3,22.9,9.3,48.4,0.9,71.4
			c-6.1,16.2-16.8,30.1-29.4,41.7c-11.1,11-22.2,22-33.2,33.1c-11.8,11.8-23.6,23.5-35.3,35.4c-11.3,11.3-22.6,22.5-33.8,33.8
			c-12.3,12.3-24.7,24.6-37,37c-14,14-28.1,27.9-42,42c-13.2,13.3-26.5,26.5-39.8,39.8s-26.8,26.7-40.1,40.1
			c-12.3,11.8-23.5,24.9-37.4,35.1c-17.4,10.8-37.5,16.3-58,16c-23.5-1.5-46.7-10.8-63.7-27.5c-52.4-52.3-104.7-104.6-157-156.9
			c-12.8-12.7-21.4-29.1-26-46.4c-4.8-23.9-1.9-49.5,10.3-70.8c9.4-16.5,23.8-29.6,40.2-39c18-8.5,38-11.9,57.9-9.7
			c21.4,3.2,42,13,56.9,28.8c28.4,28.5,56.8,56.9,85.2,85.2c8.6-8.2,16.9-16.7,25.2-25.3c12-11.5,23.7-23.3,35.2-35.4
			c11.4-10.7,22.3-21.8,33.1-33.1c7.7-6.9,14.8-14.5,22.1-21.8c12-11.7,23.8-23.6,35.5-35.5c11.2-10.8,22.1-22,33.1-33
			c11.8-11.5,23.3-23.3,35-34.9C663.3,275.4,677.7,266.4,693.7,261.1L693.7,261.1z"/>
	</g>
</g>
</svg>


