<?xml version="1.0" encoding="utf-8"?>
<!-- Generator: Adobe Illustrator 26.1.0, SVG Export Plug-In . SVG Version: 6.00 Build 0)  -->
<svg version="1.1" id="Layer_1" xmlns="http://www.w3.org/2000/svg" xmlns:xlink="http://www.w3.org/1999/xlink" x="0px" y="0px"
	 viewBox="0 0 3584.6 3673.6" style="enable-background:new 0 0 3584.6 3673.6;" xml:space="preserve">
<style type="text/css">
	.st0{fill-rule:evenodd;clip-rule:evenodd;fill:#EE7F22;}
</style>
<g id="Isolation_Mode">
	<path class="st0" d="M1024.2,0h1536.2c563.3,0,1024.2,460.2,1024.2,1023.4v493.9c-505,227-1014.4,1348.1-1756.9,1104.5
		c-61.2,43.5-202.1,222.6-212,358.4c-257.1-34.2-553.5-328.9-518-646.6c-427.9-309.5-74.5-880.9,264.8-1110.9
		c727.3-492.9,1737.1-69,1175.4,283.4c-341.5,214.3-1071.8,355.9-995.9-170.2c-200.3,57.8-328.6,431.3-87.4,626
		c-223.4,219.5-180.5,623.1,58.4,755.6c241.6-625.9,1082.3-544.1,1422-1291.2c255.6-562-123.3-1202.4-880.9-1104
		C1482.3,396.6,946.4,878.9,678.3,1450.9c-271.9,580.4-231.5,1357.5,326.9,1749.2c657.2,460.9,1356.8,34.1,1780.5-523.7
		c249.8-328.8,468-693,798.8-903.4v875.7c0,563.3-460.9,1024.9-1024.2,1024.9H1024.2C460.9,3673.6,0,3212.7,0,2649.4V1024.2
		C0,460.9,460.9,0,1024.2,0L1024.2,0z"/>
</g>
</svg>
