<?xml version="1.0" encoding="utf-8"?>
<!-- Generator: Adobe Illustrator 26.1.0, SVG Export Plug-In . SVG Version: 6.00 Build 0)  -->
<svg version="1.1" id="File" xmlns="http://www.w3.org/2000/svg" xmlns:xlink="http://www.w3.org/1999/xlink" x="0px" y="0px"
	 viewBox="0 0 491 483" style="enable-background:new 0 0 491 483;" xml:space="preserve">
<style type="text/css">
	.st0{fill:url(#SVGID_1_);}
	.st1{fill:url(#SVGID_00000076598721977619246980000015276735992754299010_);}
	.st2{fill:#FFFFFF;}
</style>
<g>
	<g>
		<linearGradient id="SVGID_1_" gradientUnits="userSpaceOnUse" x1="245.1763" y1="482.1254" x2="245.1763" y2="1">
			<stop  offset="0" style="stop-color:#008CEA"/>
			<stop  offset="1" style="stop-color:#00E995"/>
		</linearGradient>
		<path class="st0" d="M478.5,310.6c5.8-19,8.8-38.7,10-58.6l0.1-0.9v-17.8c-0.9-13.8-2.3-27.7-5.3-41.3
			c-4.6-21.5-12.3-42.5-22.6-61.9c-10.9-20.4-24.7-39.4-41-55.8C374.2,27.1,308.7,0.4,243.1,1C180.7,1.1,118.7,26.4,74.2,70
			c-17.6,17-32.5,36.7-44,58.3c-9,16.7-15.9,34.3-20.8,52.6c-5,17.4-6.9,35.5-8,53.5v13.9c1.1,16.2,3,32.5,6.9,48.3
			c4.8,20.2,12.2,39.8,22.1,58.1c12.3,22.4,27.9,43.1,46.6,60.5c22.3,21.2,48.6,37.9,77,49.4c62.7,25.3,136,23.3,196.9-6.1
			c7.4-3.1,14.5-7.6,22.6-8.7c5.6-0.8,10.4,2.6,15.3,4.7c26.5,11.7,56.2,16.5,85,13.7c5.5-0.4,10.8-2.3,14.9-6l0.4-2.3l-0.4-1.7
			c-2.5-5.2-7-8.8-11.1-12.7c-8.5-7.9-16.4-16.7-21.2-27.4c-7.5-16-5.8-34.5-0.4-50.9C462.4,348,473.3,330.4,478.5,310.6z
			 M319.2,267.5c-52.4-0.1-104.7,0-157.1-0.1c-8.9,0.1-17.5-5.4-21.2-13.4c-2.7-5.4-2.5-11.5-2.1-17.4c1.2-7.9,6.5-15,13.8-18.2
			c5.4-2.5,11.4-2.1,17.1-2.1c52.3,0.1,104.7-0.1,157,0.1c11.4-0.2,21.8,9,23.4,20.2c1.6,10.5-1.8,22.6-11.7,27.8
			C332.7,267.9,325.7,267.5,319.2,267.5z M221.3,345.6c-20.3,0-40.7,0.2-61-0.1c-12.2-0.5-21.8-11.8-21.9-23.8
			c-1.2-13,8.3-26.5,21.9-27.2c20-0.4,40-0.1,60-0.1c8.9-0.3,17.7,4.8,21.7,12.7c3.6,7.2,3.1,15.6,1.3,23.2
			C239.6,339.2,230.9,345.8,221.3,345.6z M267.8,137.9c20,0,40.1-0.1,60.1,0.1c10.2,0.1,19.7,7.6,22.1,17.4
			c1.9,8.5,1.1,18.2-4.5,25.2c-4.7,5.2-11.5,8.5-18.6,8.5c-19.7,0-39.3,0.1-59-0.1c-8.4,0-15.9-5-20.3-11.9
			c-3.1-6.8-3.7-14.6-2-21.9C248.1,145.5,257.6,137.9,267.8,137.9z"/>
	</g>
	<g>
		
			<linearGradient id="SVGID_00000168107078853046377610000009421963004837074049_" gradientUnits="userSpaceOnUse" x1="244.9602" y1="448.8128" x2="244.9602" y2="34.3179">
			<stop  offset="0" style="stop-color:#6C46C3"/>
			<stop  offset="1" style="stop-color:#7D53DC"/>
		</linearGradient>
		<path style="fill:url(#SVGID_00000168107078853046377610000009421963004837074049_);" d="M450.2,193.5c-1.1-4.3-2.4-8.4-3.7-12.6
			c-6-17.6-14-34.4-23.8-50.2c-1.5-2.5-3.1-4.9-4.8-7.3c-13.5-18.8-30.1-35.3-48.6-49.3c-22.9-16-48.7-27.8-75.6-34.9
			c-32.1-6.6-65.6-6.7-97.7-0.1c-26.5,7-51.7,18.5-74.3,34c-18.9,14.1-36,30.9-49.8,50.1c-1.3,1.8-2.5,3.7-3.7,5.6
			c-10.6,17-19.2,35.3-25.4,54.4c-0.1,0.2-0.2,0.6-0.3,0.8c-6,17-6.9,35-7.9,52.8c-0.2,6,0.2,12,0.5,18c1,13.8,2.5,27.7,6.6,40.9
			c4.1,13.2,9.1,26,15.4,38.4c3.7,7.2,7.6,14.2,12,20.9c15.2,22.6,34.9,42.2,57.3,57.7c21.6,13.8,45.1,24.7,69.9,31.1
			c31.4,6.4,64,6.6,95.5,0.6c17.6-4,34.4-11.1,50.7-18.9c9.6-4.9,20.2-7.2,30.7-9c18.9,0.1,34.6,12,52.6,16.2
			c-1.1-3.6-2.3-7.1-3.2-10.7c-2.2-9.4-5.1-18.7-4.8-28.4c0-9.3,2.3-18.2,4.4-27.1c2.3-10.6,5.8-21,10.3-30.9
			c4.1-8.8,8.3-17.5,11.6-26.6c6.5-16.4,9.4-33.8,10.5-51.3c0-0.6,0.1-1.9,0.1-2.5C456,234.6,454.7,213.8,450.2,193.5z M243.3,330.4
			c-3.7,8.8-12.4,15.3-22,15.2c-20.3,0-40.7,0.2-61-0.1c-12.2-0.5-21.8-11.8-21.9-23.8c-1.2-13,8.3-26.5,21.9-27.2
			c20-0.4,40-0.1,60-0.1c8.9-0.3,17.7,4.8,21.7,12.7C245.6,314.4,245.1,322.9,243.3,330.4z M338.5,264.4c-5.8,3.5-12.7,3.1-19.2,3.1
			c-52.4-0.1-104.7,0-157.1-0.1c-8.9,0.1-17.5-5.4-21.2-13.4c-2.7-5.4-2.5-11.5-2.1-17.4c1.2-7.9,6.5-15,13.8-18.2
			c5.4-2.5,11.4-2.1,17.1-2.1c52.3,0.1,104.7-0.1,157,0.1c11.4-0.2,21.8,9,23.4,20.2C351.8,247.1,348.4,259.2,338.5,264.4z
			 M345.4,180.6c-4.7,5.2-11.5,8.5-18.6,8.5c-19.7,0-39.3,0.1-59-0.1c-8.4,0-15.9-5-20.3-11.9c-3.1-6.8-3.7-14.6-2-21.9
			c2.5-9.8,12-17.3,22.2-17.3c20,0,40.1-0.1,60.1,0.1c10.2,0.1,19.7,7.6,22.1,17.4C351.8,164,351,173.6,345.4,180.6z"/>
	</g>
	<path class="st2" d="M338.5,264.4c-5.8,3.5-12.7,3.1-19.2,3.1c-52.4-0.1-104.7,0-157.1-0.1c-8.9,0.1-17.5-5.4-21.2-13.4
		c-2.7-5.4-2.5-11.5-2.1-17.4c1.2-7.9,6.5-15,13.8-18.2c5.4-2.5,11.4-2.1,17.1-2.1c52.3,0.1,104.7-0.1,157,0.1
		c11.4-0.2,21.8,9,23.4,20.2C351.8,247.1,348.4,259.2,338.5,264.4z"/>
	<path class="st2" d="M243.3,330.4c-3.7,8.8-12.4,15.3-22,15.2c-20.3,0-40.7,0.2-61-0.1c-12.2-0.5-21.8-11.8-21.9-23.8
		c-1.2-13,8.3-26.5,21.9-27.2c20-0.4,40-0.1,60-0.1c8.9-0.3,17.7,4.8,21.7,12.7C245.6,314.4,245.1,322.9,243.3,330.4z"/>
	<path class="st2" d="M345.4,180.6c-4.7,5.2-11.5,8.5-18.6,8.5c-19.7,0-39.3,0.1-59-0.1c-8.4,0-15.9-5-20.3-11.9
		c-3.1-6.8-3.7-14.6-2-21.9c2.5-9.8,12-17.3,22.2-17.3c20,0,40.1-0.1,60.1,0.1c10.2,0.1,19.7,7.6,22.1,17.4
		C351.8,164,351,173.6,345.4,180.6z"/>
</g>
</svg>
