<?xml version="1.0" encoding="utf-8"?>
<!-- Generator: Adobe Illustrator 26.1.0, SVG Export Plug-In . SVG Version: 6.00 Build 0)  -->
<svg version="1.1" id="Layer_1" xmlns="http://www.w3.org/2000/svg" xmlns:xlink="http://www.w3.org/1999/xlink" x="0px" y="0px"
	 viewBox="0 0 495.4 543" style="enable-background:new 0 0 495.4 543;" xml:space="preserve">
<style type="text/css">
	.st0{fill:#B8CE01;}
	.st1{fill:#7DB425;}
	.st2{fill:#F6A925;}
	.st3{fill:#35AC9D;}
	.st4{fill:#59D6BD;}
	.st5{fill:#EF7414;}
	.st6{fill:#FFFFFF;}
	.st7{fill:#E74B50;}
	.st8{fill:#794387;}
	.st9{fill:#E4E4E4;}
	.st10{fill:#F1F1F1;}
	.st11{fill:#4C3683;}
	.st12{fill:#0F68A0;}
	.st13{fill:#49BDCA;}
</style>
<path class="st0" d="M246.1,0h1.8c0.5,42.7-0.2,128.4-0.2,128.4c-40.9-22.9-82-45.3-122.8-68.3c26.8-15.2,53.5-30.4,80.3-45.5
	C217.8,7.5,231.4,1.3,246.1,0L246.1,0z"/>
<path class="st1" d="M247.7,0h3c15.9,1.4,30.3,9,43.9,16.7c25.5,14.4,51,28.8,76.4,43.3c-41,22.7-82.5,45.8-123.5,68.5
	C247.2,85.8,248.2,42.7,247.7,0L247.7,0z"/>
<path class="st2" d="M124.8,60.1l122.8,68.3l-123.7,72.3c0,0-0.1-45.9,0.1-68.7C123.9,108.2,124.8,60.1,124.8,60.1z"/>
<path class="st3" d="M371.2,60l0.4,0.2c-0.1,42.6,0,85.2,0,127.8c-0.1,4.2-0.1,12.8-0.1,12.8l-123.8-72.3
	C247.6,128.4,330.2,82.8,371.2,60L371.2,60z"/>
<path class="st4" d="M371.4,60.2c27.3,15.5,54.4,31.4,81.5,47.2c13.1,7.4,27,15.5,34.2,29.4c-38.4,21.2-115.7,64-115.7,64
	s-0.1-8.6,0-12.8C371.4,145.4,371.4,102.8,371.4,60.2L371.4,60.2z"/>
<path class="st5" d="M46.5,105c25.7-15,78.2-44.9,78.2-44.9L124,200.7c0,0-77-42.4-115.3-63.7C17,122.1,32.1,113.1,46.5,105z"/>
<path class="st6" d="M247.5,128.4l123.8,72.3c0,0-39.8,22-59.6,32.6c-21.1,12-64.1,35.8-64.1,35.8l-123.7-68.5L247.5,128.4z"/>
<path class="st7" d="M0,193c0.1-18.8-0.2-38.9,8.7-56c38.3,21.2,115.3,63.7,115.3,63.7C82.6,224.6,41.4,248.9,0,272.8
	C0,246.2,0,219.6,0,193z"/>
<path class="st8" d="M487.1,136.8c7.5,14.1,8.6,30.5,8.2,46.2v90.1l-123.9-72.3C371.4,200.8,448.7,158,487.1,136.8z"/>
<path class="st9" d="M123.9,200.7c0.2-0.1,123.7,68.5,123.7,68.5s0,71.7,0.1,106.8c0.2,11.3-0.1,34.1-0.1,34.1
	c-41.3-22.8-82.3-45.8-123.6-68.5l-0.1-0.3L123.9,200.7L123.9,200.7z"/>
<path class="st8" d="M0,272.8c41.3-24,82.5-48.2,123.9-72.1c0,46.9,0,93.7,0,140.6c-6.3-2.6-12.1-6.4-18.2-9.6
	C70.5,312.2,35.4,292.4,0,273.2V272.8z"/>
<path class="st10" d="M371.4,200.8v86.2c-0.1,18.3,0.5,36.5,0,54.7c-41.2,22.4-123.8,68.4-123.8,68.4s0.3-22.8,0.1-34.1
	c0-35.1-0.1-106.8-0.1-106.8L371.4,200.8z"/>
<path class="st11" d="M371.4,200.8c0,0,123.9,72.1,123.9,72.3c-41.2,22.8-123.9,68.6-123.9,68.6l0,0c0.5-18.3-0.1-36.5,0-54.7
	L371.4,200.8L371.4,200.8z"/>
<path class="st11" d="M0,273.2c35.4,19.2,70.4,39,105.7,58.4c6.1,3.2,11.8,7,18.2,9.6l0.1,0.3C86,363.7,48,385.9,10,408
	c-4-6-6-13.2-7.5-20.2C0.1,376,0,364,0,352V273.2L0,273.2z"/>
<path class="st7" d="M495.3,273.1c0.1,27.6,0,55.3,0,83c0.4,17.7-0.1,36.6-9.6,52.2c-34.2-20-114.3-66.6-114.3-66.6
	S454.1,295.9,495.3,273.1z"/>
<path class="st12" d="M10,408c38-22.2,76-44.3,114-66.5c-0.2,46.8,0.1,93.7-0.2,140.5c-26.9-15.2-53.7-30.5-80.5-45.9
	C30.8,428.8,18,420.5,10,408z"/>
<path class="st13" d="M124,341.5c41.3,22.8,82.3,45.8,123.6,68.5c-41.2,24-123.7,72-123.8,72C124.1,435.2,123.8,388.4,124,341.5
	L124,341.5z"/>
<path class="st2" d="M371.2,341.8l0.2-0.1c0.1,46.8-0.2,93.7,0.2,140.5l-0.3,0.1c-32.7-19.5-65.7-38.4-98.5-57.7
	c-8.3-4.7-25.2-14.6-25.2-14.6S330,364.2,371.2,341.8z"/>
<path class="st5" d="M371.4,341.7L371.4,341.7c3.6,2.5,80.1,46.6,114.3,66.6c-4.9,8.3-12.6,14.4-20.3,19.8
	c-12.5,8.4-25.9,15.5-38.9,23c-18.3,10.4-36.5,20.9-54.9,31C371.1,435.3,371.5,388.5,371.4,341.7L371.4,341.7z"/>
<path class="st1" d="M247.6,410.1V543c-10.2-1.5-21.4-3.9-30.5-9.1c-31.1-17.3-62.3-34.4-93.3-51.9C165,458,206.4,434.1,247.6,410.1
	z"/>
<path class="st0" d="M247.6,410.1c0,0,16.9,9.9,25.2,14.6c32.8,19.3,65.9,38.2,98.5,57.7c-31.9,17.6-63.7,35.3-95.6,53
	c-8,4.4-16.8,7-25.9,7.7h-2.3V410.1z"/>
<path class="st10" d="M602.8,233.7"/>
</svg>
