<?xml version="1.0" encoding="utf-8"?>
<!-- Generator: Adobe Illustrator 26.1.0, SVG Export Plug-In . SVG Version: 6.00 Build 0)  -->
<svg version="1.1" id="Layer_1" xmlns="http://www.w3.org/2000/svg" xmlns:xlink="http://www.w3.org/1999/xlink" x="0px" y="0px"
	 viewBox="0 0 256 256" style="enable-background:new 0 0 256 256;" xml:space="preserve">
<style type="text/css">
	.st0{fill:none;stroke:#8CB7F7;stroke-width:2;}
	.st1{fill:#FEFEFE;}
	.st2{fill:#196FEF;}
</style>
<g>
	<path vector-effect="non-scaling-stroke" class="st0" d="M150.5,17.4c-1.3-0.5-2.4-0.9-3.3-1c-22.6-3.7-44.2-1-64.8,8.1
		C69.8,30,58.6,37.5,48.9,46.9C36.6,59,27.5,73,21.6,89.1c-2.3,6.3-4,12.8-5.1,19.3c-4.6,27.5,0.1,53.3,14.2,77.6
		c2.7,4.7,5.8,8.4,9.1,11.2c7.5,6.1,16.1,8.9,25.7,8.2c10.8-0.7,19.7-5.2,27-13.2c10.5-11.5,10.9-25,6.3-39.1
		c-1.2-3.9-3.7-11-7.4-21.2c-4.7-13.1-7.7-25.8-9-38c-1.1-10.2-0.6-20,1.4-29.3c2.2-10.4,5.8-19.1,10.6-26
		c6.6-9.4,15.7-15.7,27.5-18.9c9.1-2.5,18.7-3.2,28.7-2.2c0,0,0,0,0,0c0,0,0,0,0,0c0,0,0,0,0,0C150.6,17.4,150.5,17.4,150.5,17.4
		C150.5,17.4,150.5,17.4,150.5,17.4"/>
	<path vector-effect="non-scaling-stroke" class="st0" d="M221.9,191.4c12.9-19.5,19.3-40.7,19.2-63.7c-0.2-43.4-24.4-82-63.2-101.3
		c-4.4-2.2-9.1-2.7-14.3-1.5c-8,1.8-13.6,6-16.9,12.6c-2.4,4.9-3.2,10-2.3,15.5c0.9,5.5,3.8,10.4,8.5,14.5
		c0.1,0.1,5.3,4.4,15.8,13.1c7.8,6.5,15.1,14.4,21.7,23.8c3.4,4.7,6.2,10.3,8.6,16.7c3.2,8.7,5.1,17.7,5.6,26.9
		c0.4,7.1,0.1,13.7-1.1,19.9c-3,16.3-10.4,30.9-22.1,43.8c-4.8,5.3-10.9,9.8-18.4,13.6c-20.8,10.6-45,14.4-67.6,8.9
		c-11.5-2.8-22.5-7.6-33.1-14.3c-0.1-0.1-0.1-0.1-0.2-0.1c0,0,0,0-0.1,0c0,0,0,0,0,0.1c12,8.7,25.8,15,40.2,18.3
		c27.7,6.3,54.5,2.6,80.2-11c1.1-0.6,2-0.8,2.7-0.6c25.2,6.7,38.6,10.3,40.2,10.7c0.6,0.2,1.2-0.2,1.4-0.8c0-0.1,0-0.3,0-0.4
		c-1.9-16.2-3.6-30.3-5.2-42.4C221.5,192.7,221.6,191.9,221.9,191.4"/>
</g>
<path class="st1" d="M185.1,233.3c-59.5,32-132.9,9-163.6-50.7C0.9,142.5,4.6,94.1,31.1,57.6C68,7,137.9-7,191.2,26.3
	c57.5,35.9,74,111.8,36.4,168.3c-0.2,0.3-0.3,0.7-0.2,1.1c2.9,20.2,4.7,33.3,5.6,39.2c0.5,3.5,0.2,6.2-2.7,7.9
	c-1.6,1-3.4,1.1-5.6,0.6c-17.5-4.7-30.2-8.1-38.1-10.3C186,233,185.5,233,185.1,233.3z M150.5,17.4c-1.3-0.5-2.4-0.9-3.3-1
	c-22.6-3.7-44.2-1-64.8,8.1C69.8,30,58.6,37.5,48.9,46.9C36.6,59,27.5,73,21.6,89.1c-2.3,6.3-4,12.8-5.1,19.3
	c-4.6,27.5,0.1,53.3,14.2,77.6c2.7,4.7,5.8,8.4,9.1,11.2c7.5,6.1,16.1,8.9,25.7,8.2c10.8-0.7,19.7-5.2,27-13.2
	c10.5-11.5,10.9-25,6.3-39.1c-1.2-3.9-3.7-11-7.4-21.2c-4.7-13.1-7.7-25.8-9-38c-1.1-10.2-0.6-20,1.4-29.3
	c2.2-10.4,5.8-19.1,10.6-26c6.6-9.4,15.7-15.7,27.5-18.9c9.1-2.5,18.7-3.2,28.7-2.2c0,0,0,0,0,0c0,0,0,0,0,0c0,0,0,0,0,0
	C150.6,17.4,150.5,17.4,150.5,17.4C150.5,17.4,150.5,17.4,150.5,17.4z M221.9,191.4c12.9-19.5,19.3-40.7,19.2-63.7
	c-0.2-43.4-24.4-82-63.2-101.3c-4.4-2.2-9.1-2.7-14.3-1.5c-8,1.8-13.6,6-16.9,12.6c-2.4,4.9-3.2,10-2.3,15.5
	c0.9,5.5,3.8,10.4,8.5,14.5c0.1,0.1,5.3,4.4,15.8,13.1c7.8,6.5,15.1,14.4,21.7,23.8c3.4,4.7,6.2,10.3,8.6,16.7
	c3.2,8.7,5.1,17.7,5.6,26.9c0.4,7.1,0.1,13.7-1.1,19.9c-3,16.3-10.4,30.9-22.1,43.8c-4.8,5.3-10.9,9.8-18.4,13.6
	c-20.8,10.6-45,14.4-67.6,8.9c-11.5-2.8-22.5-7.6-33.1-14.3c-0.1-0.1-0.1-0.1-0.2-0.1c0,0,0,0-0.1,0c0,0,0,0,0,0.1
	c12,8.7,25.8,15,40.2,18.3c27.7,6.3,54.5,2.6,80.2-11c1.1-0.6,2-0.8,2.7-0.6c25.2,6.7,38.6,10.3,40.2,10.7c0.6,0.2,1.2-0.2,1.4-0.8
	c0-0.1,0-0.3,0-0.4c-1.9-16.2-3.6-30.3-5.2-42.4C221.5,192.7,221.6,191.9,221.9,191.4z"/>
<path class="st2" d="M150.5,17.4C150.5,17.4,150.6,17.4,150.5,17.4C150.6,17.4,150.6,17.4,150.5,17.4
	C150.6,17.4,150.6,17.4,150.5,17.4C150.6,17.4,150.6,17.5,150.5,17.4c-10-0.9-19.6-0.2-28.7,2.3c-11.8,3.2-20.9,9.5-27.5,18.9
	c-4.8,6.9-8.3,15.5-10.6,26c-2,9.3-2.5,19.1-1.4,29.3c1.3,12.2,4.3,24.9,9,38c3.7,10.2,6.1,17.3,7.4,21.2
	c4.5,14.2,4.1,27.6-6.3,39.1c-7.3,8-16.1,12.5-27,13.2c-9.6,0.6-18.2-2.1-25.7-8.2c-3.3-2.7-6.3-6.4-9.1-11.2
	c-14.1-24.3-18.8-50.2-14.2-77.6c1.1-6.5,2.8-13,5.1-19.3C27.5,73,36.6,59,48.9,46.9c9.7-9.5,20.8-17,33.5-22.5
	c20.6-9.1,42.2-11.8,64.8-8.1C148,16.5,149.1,16.8,150.5,17.4C150.5,17.4,150.5,17.4,150.5,17.4z"/>
<path class="st2" d="M221.9,191.4c-0.3,0.5-0.4,1.3-0.3,2.3c1.6,12.1,3.4,26.2,5.2,42.4c0.1,0.6-0.4,1.2-1,1.3c-0.1,0-0.3,0-0.4,0
	c-1.5-0.4-14.9-4-40.2-10.7c-0.7-0.2-1.6,0-2.7,0.6c-25.7,13.6-52.5,17.2-80.2,11c-14.5-3.3-28.2-9.6-40.2-18.3c0,0,0-0.1,0-0.1
	c0.1,0,0.1,0,0.1,0c0,0,0.1,0,0.2,0.1c10.6,6.7,21.6,11.5,33.1,14.3c22.7,5.5,46.8,1.7,67.6-8.9c7.4-3.8,13.6-8.3,18.4-13.6
	c11.7-12.9,19.1-27.5,22.1-43.8c1.1-6.2,1.5-12.9,1.1-19.9c-0.5-9.2-2.4-18.2-5.6-26.9c-2.4-6.4-5.2-12-8.6-16.7
	c-6.7-9.4-13.9-17.4-21.7-23.8c-10.5-8.7-15.8-13-15.8-13.1c-4.7-4.1-7.6-9-8.5-14.5c-0.9-5.5-0.2-10.6,2.3-15.5
	c3.3-6.6,8.9-10.8,16.9-12.6c5.2-1.2,9.9-0.7,14.3,1.5c38.8,19.3,63.1,57.9,63.2,101.3C241.2,150.7,234.8,171.9,221.9,191.4z"/>
</svg>
