<?xml version="1.0" encoding="utf-8"?>
<!-- Generator: Adobe Illustrator 26.1.0, SVG Export Plug-In . SVG Version: 6.00 Build 0)  -->
<svg version="1.1" id="Layer_1" xmlns="http://www.w3.org/2000/svg" xmlns:xlink="http://www.w3.org/1999/xlink" x="0px" y="0px"
	 viewBox="0 0 24 24" style="enable-background:new 0 0 24 24;" xml:space="preserve">
<style type="text/css">
	.st0{fill:url(#SVGID_1_);stroke:#FEFEFE;stroke-width:0.8;}
	.st1{fill:url(#SVGID_00000101081538248852323090000010877049820164719514_);stroke:#FEFEFE;stroke-width:0.8;}
	.st2{fill:none;stroke:#FEFEFE;stroke-width:0.25;stroke-linecap:round;}
	.st3{fill:#0F1318;stroke:#FEFEFE;stroke-width:0.8;}
	.st4{stroke:#FEFEFE;stroke-width:0.8;}
	.st5{fill:#333739;}
	.st6{stroke:#1CB5F0;}
	.st7{stroke:#1CC7F0;}
</style>
<g>
	
		<linearGradient id="SVGID_1_" gradientUnits="userSpaceOnUse" x1="-780.3276" y1="25.559" x2="-780.3276" y2="24.569" gradientTransform="matrix(23.2 0 0 23.2 18115.5996 -569.6001)">
		<stop  offset="0" style="stop-color:#1C9DF0"/>
		<stop  offset="0.99" style="stop-color:#1CC7F0"/>
	</linearGradient>
	<circle class="st0" cx="12" cy="12" r="11.6"/>
	
		<linearGradient id="SVGID_00000143610222092670913400000008670130125299008654_" gradientUnits="userSpaceOnUse" x1="-741.3182" y1="70.4732" x2="-741.3182" y2="69.4832" gradientTransform="matrix(11 0 0 8.2034 8161 -554.588)">
		<stop  offset="0" style="stop-color:#1C9DF0"/>
		<stop  offset="0.99" style="stop-color:#1CAAEF"/>
	</linearGradient>
	<path style="fill:url(#SVGID_00000143610222092670913400000008670130125299008654_);stroke:#FEFEFE;stroke-width:0.8;" d="M12,15.4
		H4c-1.8-0.1-2.8,0.8-3,2.7v5.5h11"/>
	<path class="st2" d="M1,21.7c0.7-1.5,1.7-2.2,3-2.3h3"/>
	<g>
		<circle class="st3" cx="12" cy="12" r="3.4"/>
		<path class="st3" d="M23.6,2.5c-0.1-1.3-0.8-2-2.1-2.1h-5.3v4.7c0.1,1.7,1.1,2.7,2.8,2.8h4.6V2.5z"/>
	</g>
	<path class="st4" d="M23.6,8v4 M16,0.4h-4"/>
</g>
<path class="st5" d="M23.2,7.5l0.1-4.9c0-0.6-0.3-1.1-0.5-1.3l-5.5,5.5c0.4,0.4,0.9,0.6,1.8,0.7"/>
<path class="st6" d="M22.7,12V8.3"/>
<path class="st7" d="M12,1.3h3.8"/>
</svg>
